<?xml version="1.0" encoding="utf-8"?>
<!-- Generator: Adobe Illustrator 25.3.0, SVG Export Plug-In . SVG Version: 6.00 Build 0)  -->
<svg version="1.1" xmlns="http://www.w3.org/2000/svg" xmlns:xlink="http://www.w3.org/1999/xlink" x="0px" y="0px"
	 viewBox="0 0 1920 1080" style="enable-background:new 0 0 1920 1080;" xml:space="preserve">
<style type="text/css">
	.st0{fill:#FFFFFF;}
	.st1{display:none;fill:none;stroke:#EC1E79;stroke-width:0.5;stroke-miterlimit:10;}
	.st2{display:none;}
	.st3{display:inline;fill:none;stroke:#EC1E79;stroke-width:0.5;stroke-miterlimit:10;}
	.st4{display:inline;}
	.st5{fill:none;stroke:#EC1E79;stroke-width:0.5;stroke-miterlimit:10;}
	.st6{fill:none;stroke:#000000;stroke-width:30;stroke-miterlimit:10;}
	.st7{stroke:#000000;stroke-width:0.75;stroke-miterlimit:10;}
</style>
<g id="BACKGROUND">
</g>
<g id="TYPO">
	<g id="cy_x5F_BLACK_1_">
		<g>
			<path d="M1039.3,593.2H914c-7.4,0-14.3-1.4-20.8-4.2c-6.5-2.8-12.1-6.6-16.9-11.3c-4.8-4.8-8.6-10.4-11.3-16.9
				c-2.8-6.5-4.2-13.4-4.2-20.8c0-7.4,1.4-14.3,4.2-20.8c2.8-6.5,6.6-12.1,11.3-16.9c4.8-4.8,10.4-8.5,16.9-11.3
				c6.5-2.8,13.4-4.2,20.8-4.2h125.3v32.4H914c-5.8,0-10.7,2-14.7,6.1c-4.1,4-6.1,9-6.1,14.7c0,5.8,2,10.7,6.1,14.7
				c4,4,9,6.1,14.7,6.1h125.3V593.2z"/>
			<path d="M1143.4,642.3l28.4-49.1h-8.9c-7.7,0-14.9-1.8-21.3-5.5c-6.5-3.7-11.7-9-15.7-15.8l-49.7-85.1h37l40.2,69.1
				c2.2,3.4,5.3,5.1,9.4,5.1h27.5l43.5-74.2h37l-90.5,155.5H1143.4z"/>
		</g>
	</g>
</g>
<g id="LINEWORK">
	<g id="Kreis_C">
		<g>
			<g class="st2">
				<line class="st3" x1="949.1" y1="240" x2="949.1" y2="840"/>
				<line class="st3" x1="890.5" y1="245.8" x2="1007.6" y2="834.2"/>
				<line class="st3" x1="834.2" y1="262.8" x2="1063.9" y2="817.2"/>
				<line class="st3" x1="782.4" y1="290.6" x2="1115.7" y2="789.4"/>
				<line class="st3" x1="736.9" y1="327.9" x2="1161.2" y2="752.1"/>
				<line class="st3" x1="699.6" y1="373.3" x2="1198.5" y2="706.7"/>
				<line class="st3" x1="671.9" y1="425.2" x2="1226.2" y2="654.8"/>
				<line class="st3" x1="654.8" y1="481.5" x2="1243.3" y2="598.5"/>
				<line class="st3" x1="649.1" y1="540" x2="1249.1" y2="540"/>
				<line class="st3" x1="654.8" y1="598.5" x2="1243.3" y2="481.5"/>
				<line class="st3" x1="671.9" y1="654.8" x2="1226.2" y2="425.2"/>
				<line class="st3" x1="699.6" y1="706.7" x2="1198.5" y2="373.3"/>
				<line class="st3" x1="736.9" y1="752.1" x2="1161.2" y2="327.9"/>
				<line class="st3" x1="782.4" y1="789.4" x2="1115.7" y2="290.6"/>
				<line class="st3" x1="834.2" y1="817.2" x2="1063.9" y2="262.8"/>
				<line class="st3" x1="890.5" y1="834.2" x2="1007.6" y2="245.8"/>
			</g>
			<g>
				<path d="M949.1,754.8c-28.5,0-56.2-5.5-82.2-16.3c-39.3-16.3-72.6-43.7-96.4-79.1c-23.7-35.4-36.2-76.6-36.2-119.4
					s12.5-84,36.2-119.4c7.8-11.7,16.8-22.6,26.7-32.5c9.9-9.9,20.8-18.9,32.5-26.7c11.7-7.8,24.2-14.5,37.1-19.9
					c26.1-10.8,53.7-16.3,82.2-16.3c28.5,0,56.2,5.5,82.2,16.3l-11.5,27.7c-22.4-9.3-46.2-14-70.7-14c-24.5,0-48.3,4.7-70.7,14
					c-11.1,4.6-21.9,10.4-31.9,17.1c-10,6.7-19.5,14.5-28,23c-8.6,8.6-16.3,18-23,28c-20.4,30.4-31.1,65.9-31.1,102.7
					c0,36.8,10.8,72.3,31.1,102.7c20.4,30.5,49.1,54.1,82.9,68.1c22.4,9.3,46.2,14,70.7,14c24.5,0,48.3-4.7,70.7-14l11.5,27.7
					C1005.2,749.3,977.5,754.8,949.1,754.8z"/>
				<path d="M1136,415.1c-24.9-37.1-59.8-65.8-100.9-82.9c-27.3-11.3-56.2-17.1-86.1-17.1c-29.8,0-58.8,5.7-86.1,17.1
					c-13.6,5.6-26.6,12.6-38.8,20.8l-16.7-24.9c13.9-9.3,28.7-17.2,44.1-23.6c30.9-12.8,63.8-19.3,97.5-19.3
					c33.8,0,66.6,6.5,97.5,19.3c46.6,19.3,86.2,51.8,114.3,93.9L1136,415.1z"/>
				<path d="M768.9,720.2c-11.8-11.8-22.4-24.8-31.7-38.6c-9.3-13.9-17.2-28.7-23.6-44.1l27.7-11.5c5.6,13.5,12.6,26.6,20.8,38.8
					c8.2,12.2,17.6,23.7,28,34.1L768.9,720.2z"/>
				<path d="M949.1,794.8c-33.8,0-66.6-6.5-97.5-19.3l11.5-27.7c27.3,11.3,56.2,17.1,86.1,17.1c29.8,0,58.8-5.7,86-17.1
					c13.6-5.6,26.6-12.6,38.9-20.8c12.2-8.2,23.7-17.6,34.1-28l21.2,21.2c-11.8,11.8-24.7,22.4-38.6,31.7
					c-13.8,9.3-28.7,17.2-44.1,23.6C1015.7,788.3,982.8,794.8,949.1,794.8z"/>
				<path d="M699.1,589.7c-3.2-16.3-4.9-33-4.9-49.7c0-50.7,14.8-99.6,42.9-141.6l24.9,16.7c-24.8,37-37.9,80.2-37.9,124.9
					c0,14.8,1.4,29.5,4.3,43.9L699.1,589.7z"/>
			</g>
		</g>
	</g>
	<g id="Kreis_B" class="st2">
		<g class="st4">
			<g class="st2">
				<line class="st3" x1="339.1" y1="495" x2="339.1" y2="1095"/>
				<line class="st3" x1="280.5" y1="500.8" x2="397.6" y2="1089.2"/>
				<line class="st3" x1="224.2" y1="517.8" x2="453.9" y2="1072.2"/>
				<line class="st3" x1="172.4" y1="545.6" x2="505.7" y2="1044.4"/>
				<line class="st3" x1="126.9" y1="582.9" x2="551.2" y2="1007.1"/>
				<line class="st3" x1="89.6" y1="628.3" x2="588.5" y2="961.7"/>
				<line class="st3" x1="61.9" y1="680.2" x2="616.2" y2="909.8"/>
				<line class="st3" x1="44.8" y1="736.5" x2="633.3" y2="853.5"/>
				<line class="st3" x1="39.1" y1="795" x2="639.1" y2="795"/>
				<line class="st3" x1="44.8" y1="853.5" x2="633.3" y2="736.5"/>
				<line class="st3" x1="61.9" y1="909.8" x2="616.2" y2="680.2"/>
				<line class="st3" x1="89.6" y1="961.7" x2="588.5" y2="628.3"/>
				<line class="st3" x1="126.9" y1="1007.1" x2="551.2" y2="582.9"/>
				<line class="st3" x1="172.4" y1="1044.4" x2="505.7" y2="545.6"/>
				<line class="st3" x1="224.2" y1="1072.2" x2="453.9" y2="517.8"/>
				<line class="st3" x1="280.5" y1="1089.2" x2="397.6" y2="500.8"/>
			</g>
			<g>
				<path d="M339.1,1009.8c-28.5,0-56.2-5.5-82.2-16.3c-39.3-16.3-72.6-43.7-96.4-79.1c-23.7-35.4-36.2-76.6-36.2-119.4
					s12.5-84,36.2-119.4c7.8-11.7,16.8-22.6,26.7-32.5c9.9-9.9,20.8-18.9,32.5-26.7c11.7-7.8,24.2-14.5,37.1-19.9
					c26.1-10.8,53.7-16.3,82.2-16.3c28.5,0,56.2,5.5,82.2,16.3l-11.5,27.7c-22.4-9.3-46.2-14-70.7-14c-24.5,0-48.3,4.7-70.7,14
					c-11.1,4.6-21.9,10.4-31.9,17.1c-10,6.7-19.5,14.5-28,23c-8.6,8.6-16.3,18-23,28c-20.4,30.4-31.1,65.9-31.1,102.7
					c0,36.8,10.8,72.3,31.1,102.7c20.4,30.5,49.1,54.1,82.9,68.1c22.4,9.3,46.2,14,70.7,14c24.5,0,48.3-4.7,70.7-14l11.5,27.7
					C395.2,1004.3,367.5,1009.8,339.1,1009.8z"/>
				<path d="M526,670.1c-24.9-37.1-59.8-65.8-100.9-82.9c-27.3-11.3-56.2-17.1-86.1-17.1c-29.8,0-58.8,5.7-86.1,17.1
					c-13.6,5.6-26.6,12.6-38.8,20.8l-16.7-24.9c13.9-9.3,28.7-17.2,44.1-23.6c30.9-12.8,63.8-19.3,97.5-19.3
					c33.8,0,66.6,6.5,97.5,19.3c46.6,19.3,86.2,51.8,114.3,93.9L526,670.1z"/>
				<path d="M339.1,1049.8c-33.8,0-66.6-6.5-97.5-19.3l11.5-27.7c27.3,11.3,56.2,17.1,86.1,17.1c29.8,0,58.8-5.7,86-17.1
					c13.6-5.6,26.6-12.6,38.9-20.8c12.2-8.2,23.7-17.6,34.1-28l21.2,21.2c-11.8,11.8-24.7,22.4-38.6,31.7
					c-13.8,9.3-28.7,17.2-44.1,23.6C405.7,1043.3,372.8,1049.8,339.1,1049.8z"/>
				<path d="M127.2,936.6C99.1,894.6,84.2,845.7,84.2,795c0-50.7,14.8-99.6,42.9-141.6l24.9,16.7c-24.8,37-37.9,80.2-37.9,124.9
					c0,44.7,13.1,87.9,37.9,124.9L127.2,936.6z"/>
			</g>
		</g>
	</g>
	<g id="Kreis_A" class="st2">
		<g class="st4">
			<g class="st2">
				<line class="st3" x1="339.1" y1="495" x2="339.1" y2="1095"/>
				<line class="st3" x1="280.5" y1="500.8" x2="397.6" y2="1089.2"/>
				<line class="st3" x1="224.2" y1="517.8" x2="453.9" y2="1072.2"/>
				<line class="st3" x1="172.4" y1="545.6" x2="505.7" y2="1044.4"/>
				<line class="st3" x1="126.9" y1="582.9" x2="551.2" y2="1007.1"/>
				<line class="st3" x1="89.6" y1="628.3" x2="588.5" y2="961.7"/>
				<line class="st3" x1="61.9" y1="680.2" x2="616.2" y2="909.8"/>
				<line class="st3" x1="44.8" y1="736.5" x2="633.3" y2="853.5"/>
				<line class="st3" x1="39.1" y1="795" x2="639.1" y2="795"/>
				<line class="st3" x1="44.8" y1="853.5" x2="633.3" y2="736.5"/>
				<line class="st3" x1="61.9" y1="909.8" x2="616.2" y2="680.2"/>
				<line class="st3" x1="89.6" y1="961.7" x2="588.5" y2="628.3"/>
				<line class="st3" x1="126.9" y1="1007.1" x2="551.2" y2="582.9"/>
				<line class="st3" x1="172.4" y1="1044.4" x2="505.7" y2="545.6"/>
				<line class="st3" x1="224.2" y1="1072.2" x2="453.9" y2="517.8"/>
				<line class="st3" x1="280.5" y1="1089.2" x2="397.6" y2="500.8"/>
			</g>
			<g>
				<path d="M339.1,1009.8c-28.5,0-56.2-5.5-82.2-16.3c-39.3-16.3-72.6-43.7-96.4-79.1c-23.7-35.4-36.2-76.6-36.2-119.4
					s12.5-84,36.2-119.4c7.8-11.7,16.8-22.6,26.7-32.5c9.9-9.9,20.8-18.9,32.5-26.7c11.7-7.8,24.2-14.5,37.1-19.9
					c26.1-10.8,53.7-16.3,82.2-16.3c28.5,0,56.2,5.5,82.2,16.3l-11.5,27.7c-22.4-9.3-46.2-14-70.7-14c-24.5,0-48.3,4.7-70.7,14
					c-11.1,4.6-21.9,10.4-31.9,17.1c-10,6.7-19.5,14.5-28,23c-8.6,8.6-16.3,18-23,28c-20.4,30.4-31.1,65.9-31.1,102.7
					c0,36.8,10.8,72.3,31.1,102.7c20.4,30.5,49.1,54.1,82.9,68.1c22.4,9.3,46.2,14,70.7,14c24.5,0,48.3-4.7,70.7-14l11.5,27.7
					C395.2,1004.3,367.5,1009.8,339.1,1009.8z"/>
				<path d="M526,670.1c-24.9-37.1-59.8-65.8-100.9-82.9c-27.3-11.3-56.2-17.1-86.1-17.1c-29.8,0-58.8,5.7-86.1,17.1
					c-13.6,5.6-26.6,12.6-38.8,20.8l-16.7-24.9c13.9-9.3,28.7-17.2,44.1-23.6c30.9-12.8,63.8-19.3,97.5-19.3
					c33.8,0,66.6,6.5,97.5,19.3c46.6,19.3,86.2,51.8,114.3,93.9L526,670.1z"/>
				<path d="M339.1,1049.8c-33.8,0-66.6-6.5-97.5-19.3c-46.6-19.3-86.2-51.8-114.3-93.9C99.1,894.6,84.2,845.7,84.2,795
					c0-50.7,14.8-99.6,42.9-141.6l24.9,16.7c-24.8,37-37.9,80.2-37.9,124.9c0,44.7,13.1,87.9,37.9,124.9
					c24.9,37.2,59.8,65.8,100.9,82.9c27.3,11.3,56.2,17.1,86.1,17.1c29.8,0,58.8-5.7,86-17.1c13.6-5.6,26.6-12.6,38.9-20.8
					c12.2-8.2,23.7-17.6,34.1-28l21.2,21.2c-11.8,11.8-24.7,22.4-38.6,31.7c-13.8,9.3-28.7,17.2-44.1,23.6
					C405.7,1043.3,372.8,1049.8,339.1,1049.8z"/>
			</g>
		</g>
	</g>
</g>
<g id="Arbeitsbereich">
</g>
</svg>
