<?xml version="1.0" encoding="utf-8"?>
<!-- Generator: Adobe Illustrator 26.0.0, SVG Export Plug-In . SVG Version: 6.00 Build 0)  -->
<svg version="1.1" id="Ebene_1" xmlns="http://www.w3.org/2000/svg" xmlns:xlink="http://www.w3.org/1999/xlink" x="0px" y="0px"
	 viewBox="0 0 576.6 509.6" style="enable-background:new 0 0 576.6 509.6;" xml:space="preserve">
<style type="text/css">
	.st0{fill:#FFFFFF;}
	.st1{display:none;}
	.st2{display:inline;fill:none;stroke:#EC1E79;stroke-width:0.5;stroke-miterlimit:10;}
</style>
<g id="BACKGROUND">
</g>
<g>
	<g id="TYPO">
		<g id="cy_x5F_WHITE_2_">
			<g>
				<path class="st0" d="M345.1,308H219.8c-7.4,0-14.3-1.4-20.8-4.2s-12.1-6.6-16.9-11.3c-4.8-4.8-8.6-10.4-11.3-16.9
					c-2.8-6.5-4.2-13.4-4.2-20.8c0-7.4,1.4-14.3,4.2-20.8s6.6-12.1,11.3-16.9c4.8-4.8,10.4-8.5,16.9-11.3s13.4-4.2,20.8-4.2h125.3
					V234H219.8c-5.8,0-10.7,2-14.7,6.1c-4.1,4-6.1,9-6.1,14.7c0,5.8,2,10.7,6.1,14.7c4,4,9,6.1,14.7,6.1h125.3V308z"/>
				<path class="st0" d="M449.2,357.1l28.4-49.1h-8.9c-7.7,0-14.9-1.8-21.3-5.5c-6.5-3.7-11.7-9-15.7-15.8L382,201.6h37l40.2,69.1
					c2.2,3.4,5.3,5.1,9.4,5.1h27.5l43.5-74.2h37l-90.5,155.5L449.2,357.1L449.2,357.1z"/>
			</g>
		</g>
	</g>
	<g id="LINEWORK">
		<g id="Kreis_C">
			<g>
				<g class="st1">
					<line class="st2" x1="254.9" y1="-45.2" x2="254.9" y2="554.8"/>
					<line class="st2" x1="196.3" y1="-39.4" x2="313.4" y2="549"/>
					<line class="st2" x1="140" y1="-22.4" x2="369.7" y2="532"/>
					<line class="st2" x1="88.2" y1="5.4" x2="421.5" y2="504.2"/>
					<line class="st2" x1="42.7" y1="42.7" x2="467" y2="466.9"/>
					<line class="st2" x1="5.4" y1="88.1" x2="504.3" y2="421.5"/>
					<line class="st2" x1="-22.3" y1="140" x2="532" y2="369.6"/>
					<line class="st2" x1="-39.4" y1="196.3" x2="549.1" y2="313.3"/>
					<line class="st2" x1="-45.1" y1="254.8" x2="554.9" y2="254.8"/>
					<line class="st2" x1="-39.4" y1="313.3" x2="549.1" y2="196.3"/>
					<line class="st2" x1="-22.3" y1="369.6" x2="532" y2="140"/>
					<line class="st2" x1="5.4" y1="421.5" x2="504.3" y2="88.1"/>
					<line class="st2" x1="42.7" y1="466.9" x2="467" y2="42.7"/>
					<line class="st2" x1="88.2" y1="504.2" x2="421.5" y2="5.4"/>
					<line class="st2" x1="140" y1="532" x2="369.7" y2="-22.4"/>
					<line class="st2" x1="196.3" y1="549" x2="313.4" y2="-39.4"/>
				</g>
				<g>
					<path class="st0" d="M254.9,469.6c-28.5,0-56.2-5.5-82.2-16.3c-39.3-16.3-72.6-43.7-96.4-79.1c-23.7-35.4-36.2-76.6-36.2-119.4
						s12.5-84,36.2-119.4c7.8-11.7,16.8-22.6,26.7-32.5s20.8-18.9,32.5-26.7s24.2-14.5,37.1-19.9C198.7,45.5,226.3,40,254.8,40
						S311,45.5,337,56.3L325.5,84c-22.4-9.3-46.2-14-70.7-14s-48.3,4.7-70.7,14c-11.1,4.6-21.9,10.4-31.9,17.1s-19.5,14.5-28,23
						c-8.6,8.6-16.3,18-23,28C80.8,182.5,70.1,218,70.1,254.8s10.8,72.3,31.1,102.7c20.4,30.5,49.1,54.1,82.9,68.1
						c22.4,9.3,46.2,14,70.7,14s48.3-4.7,70.7-14l11.5,27.7C311,464.1,283.3,469.6,254.9,469.6z"/>
					<path class="st0" d="M441.8,129.9C416.9,92.8,382,64.1,340.9,47c-27.3-11.3-56.2-17.1-86.1-17.1c-29.8,0-58.8,5.7-86.1,17.1
						c-13.6,5.6-26.6,12.6-38.8,20.8l-16.7-24.9c13.9-9.3,28.7-17.2,44.1-23.6C188.2,6.5,221.1,0,254.8,0c33.8,0,66.6,6.5,97.5,19.3
						c46.6,19.3,86.2,51.8,114.3,93.9L441.8,129.9z"/>
					<path class="st0" d="M74.7,435c-11.8-11.8-22.4-24.8-31.7-38.6c-9.3-13.9-17.2-28.7-23.6-44.1l27.7-11.5
						c5.6,13.5,12.6,26.6,20.8,38.8s17.6,23.7,28,34.1L74.7,435z"/>
					<path class="st0" d="M254.9,509.6c-33.8,0-66.6-6.5-97.5-19.3l11.5-27.7c27.3,11.3,56.2,17.1,86.1,17.1
						c29.8,0,58.8-5.7,86-17.1c13.6-5.6,26.6-12.6,38.9-20.8c12.2-8.2,23.7-17.6,34.1-28l21.2,21.2c-11.8,11.8-24.7,22.4-38.6,31.7
						c-13.8,9.3-28.7,17.2-44.1,23.6C321.5,503.1,288.6,509.6,254.9,509.6z"/>
					<path class="st0" d="M4.9,304.5c-3.2-16.3-4.9-33-4.9-49.7c0-50.7,14.8-99.6,42.9-141.6l24.9,16.7
						c-24.8,37-37.9,80.2-37.9,124.9c0,14.8,1.4,29.5,4.3,43.9L4.9,304.5z"/>
				</g>
			</g>
		</g>
		<g id="Kreis_B">
		</g>
		<g id="Kreis_A">
		</g>
	</g>
	<g id="Arbeitsbereich">
	</g>
</g>
</svg>
